<svg width="25" height="24" viewBox="0 0 25 24" fill="none" xmlns="http://www.w3.org/2000/svg">
<path d="M16.6599 13.762C19.6738 13.762 22.0803 16.3792 22.1906 19.6017L22.1946 19.8329V21.091C22.1946 21.6263 21.788 22.0671 21.2658 22.1235L21.1522 22.1296H4.30602C3.76872 22.1296 3.32638 21.7245 3.26978 21.2041L3.26367 21.091V19.8329C3.26367 16.5827 5.60008 13.8899 8.58411 13.7664L8.79833 13.762H16.6599ZM16.6599 15.5622H8.79833C6.82788 15.5622 5.16687 17.3301 5.06801 19.617L5.06336 19.8329L5.06236 20.3287H20.3949V19.8329C20.3949 17.5148 18.7936 15.6767 16.8437 15.5674L16.6599 15.5622ZM12.7291 2.60022C15.4258 2.60022 17.6078 4.79529 17.6078 7.49811C17.6078 10.2009 15.4258 12.396 12.7291 12.396C10.0324 12.396 7.85041 10.2009 7.85041 7.49811C7.85041 4.79529 10.0324 2.60022 12.7291 2.60022ZM12.7291 4.40047C11.0297 4.40047 9.65011 5.78629 9.65011 7.49811C9.65011 9.20993 11.0297 10.5957 12.7291 10.5957C14.4286 10.5957 15.8081 9.20993 15.8081 7.49811C15.8081 5.78629 14.4286 4.40047 12.7291 4.40047Z" fill="white"/>
</svg>
