<svg width="25" height="24" viewBox="0 0 25 24" fill="none" xmlns="http://www.w3.org/2000/svg">
<path d="M18.0304 2C18.277 2 18.5092 2.1161 18.6571 2.31336L21.4106 5.985C21.4339 6.01451 21.4551 6.04575 21.4741 6.07848C21.483 6.09427 21.4916 6.11041 21.4996 6.12681C21.5068 6.14109 21.5134 6.15592 21.5197 6.17098C21.5244 6.18292 21.529 6.19482 21.5332 6.20682C21.5408 6.22728 21.5473 6.24826 21.5529 6.2696C21.5699 6.33447 21.5788 6.40189 21.5788 6.47005V19.3733C21.5788 20.824 20.4028 22 18.9521 22H6.04885C4.59814 22 3.42212 20.824 3.42212 19.3733V6.47005C3.42212 6.36611 3.44279 6.26389 3.48223 6.16909C3.48807 6.15455 3.4945 6.14034 3.50133 6.12636C3.52295 6.08242 3.54885 6.03994 3.5788 6L3.52712 6.07799C3.52824 6.07606 3.52937 6.07413 3.53051 6.07221L3.5788 6L6.34378 2.31336C6.49173 2.1161 6.72392 2 6.9705 2H18.0304ZM20.0111 7.253H4.98812L4.98894 19.3733C4.98894 19.8806 5.34537 20.3047 5.82147 20.4087L5.93336 20.427L6.04885 20.4332H18.9521C19.5374 20.4332 20.012 19.9586 20.012 19.3733L20.0111 7.253ZM16.1871 9.37327C16.6197 9.37327 16.9705 9.72402 16.9705 10.1567C16.9705 12.6254 14.9692 14.6267 12.5004 14.6267C10.0317 14.6267 8.03041 12.6254 8.03041 10.1567C8.03041 9.72402 8.38116 9.37327 8.81382 9.37327C9.24649 9.37327 9.59723 9.72402 9.59723 10.1567C9.59723 11.7601 10.897 13.0599 12.5004 13.0599C14.1038 13.0599 15.4037 11.7601 15.4037 10.1567C15.4037 9.72402 15.7544 9.37327 16.1871 9.37327ZM17.6387 3.56682H7.36129L5.77012 5.686H19.2281L17.6387 3.56682Z" fill="white"/>
</svg>
