<svg width="25" height="24" viewBox="0 0 25 24" fill="none" xmlns="http://www.w3.org/2000/svg">
<path d="M21.4346 13C22.263 13 22.9346 13.6716 22.9346 14.5V20.5C22.9346 21.3284 22.263 22 21.4346 22H15.4346C14.6061 22 13.9346 21.3284 13.9346 20.5V14.5C13.9346 13.6716 14.6061 13 15.4346 13H21.4346ZM10.4375 13C11.2659 13 11.9375 13.6716 11.9375 14.5V20.5C11.9375 21.3284 11.2659 22 10.4375 22H4.4375C3.60907 22 2.9375 21.3284 2.9375 20.5V14.5C2.9375 13.6716 3.60907 13 4.4375 13H10.4375ZM21.2345 14.7H15.6345V20.3H21.2345V14.7ZM10.2375 14.7H4.6375V20.3H10.2375V14.7ZM10.4375 2C11.2659 2 11.9375 2.67157 11.9375 3.5V9.5C11.9375 10.3284 11.2659 11 10.4375 11H4.4375C3.60907 11 2.9375 10.3284 2.9375 9.5V3.5C2.9375 2.67157 3.60907 2 4.4375 2H10.4375ZM21.4346 2C22.263 2 22.9346 2.67157 22.9346 3.5V9.5C22.9346 10.3284 22.263 11 21.4346 11H15.4346C14.6061 11 13.9346 10.3284 13.9346 9.5V3.5C13.9346 2.67157 14.6061 2 15.4346 2H21.4346ZM10.2375 3.7H4.6375V9.3H10.2375V3.7ZM21.2345 3.7H15.6345V9.3H21.2345V3.7Z" fill="white"/>
</svg>
