<svg width="487" height="117" viewBox="0 0 487 117" fill="none" xmlns="http://www.w3.org/2000/svg">
<g clip-path="url(#clip0_206_2)">
<path d="M20.52 51.8899V59.45C24.17 52.56 29.3 49.45 37.4 49.45C45.5 49.45 51.57 52.96 54.54 59.45C58.73 52.56 64.4 49.45 72.91 49.45C78.85 49.45 84.11 51.34 87.76 54.99C91.76 58.99 93.29 63.63 93.29 73.08V114.4H72.77V76.73C72.77 70.39 69.77 66.47 64.77 66.47C59.77 66.47 56.77 70.39 56.77 76.73V114.4H36.32V77.4C36.32 70.51 33.32 66.4599 28.22 66.4599C27.0412 66.4418 25.8751 66.7044 24.8179 67.226C23.7607 67.7477 22.8428 68.5134 22.14 69.4599C20.93 71.3499 20.52 73.1099 20.52 77.4599V114.46H0V51.8899H20.52Z" fill="#0AB850"/>
<path d="M125.69 87.53C127.18 94.53 132.58 98.74 140 98.74C145.54 98.74 150.13 96.31 152.29 91.85L171.19 96.71C168.09 102.92 165.79 105.76 161.07 109.4C154.999 114.304 147.404 116.932 139.6 116.83C119.21 116.83 104.5 102.65 104.5 82.83C104.5 63.01 118.27 49.48 138.5 49.48C159.16 49.48 173.06 63.66 173.06 84.99V87.55L125.69 87.53ZM152.16 76.6C150.81 70.12 145.95 66.47 138.66 66.47C131.66 66.47 126.91 70.12 125.56 76.6H152.16Z" fill="#0AB850"/>
<path d="M205.81 51.8899V60.3999C207.43 55.8099 208.65 53.9199 211.21 52.1599C213.868 50.371 217.006 49.4296 220.21 49.4599H222.21V70.5199C220.73 70.3899 219.21 70.2499 218.43 70.2499C213.84 70.2499 209.93 72.1399 207.76 75.2499C206.14 77.4099 205.76 79.6999 205.76 84.9699V114.4H185.29V51.8899H205.81Z" fill="#0AB850"/>
<path d="M288.41 107.51C280.98 113.99 273.41 116.83 263.97 116.83C254.701 116.841 245.774 113.327 239 107C232.79 101.2 229.54 93 229.54 83.51C229.54 63.67 243.86 49.51 263.7 49.51C273.29 49.51 280.98 52.75 289.76 60.31L276.12 72.55C272.61 69.04 269.12 67.55 264.65 67.55C256.55 67.55 250.2 74.17 250.2 82.81C250.2 91.81 256.82 98.74 265.73 98.74C269.37 98.74 271.94 97.66 276.12 94.28L288.41 107.51Z" fill="#0AB850"/>
<path d="M343.63 51.89H364.15V114.4H343.63V107.4C337.96 113.88 331.34 116.85 322.43 116.85C304.61 116.85 291.78 103.21 291.78 84.04C291.78 64.04 305.42 49.48 324.19 49.48C332.19 49.48 337.55 52.04 343.63 58.66V51.89ZM313.63 83.62C313.63 93.2 320.11 100.62 328.48 100.62C336.85 100.62 343.9 92.8 343.9 83.35C343.9 73.35 337.55 66.47 328.64 66.47C319.73 66.47 313.66 73.63 313.66 83.62H313.63Z" fill="#0AB850"/>
<path d="M401.55 93.3401C401.55 96.3401 402.63 97.1201 406.55 97.3401H408.71V114.34H392.91C384.13 114.07 380.91 110.42 381.03 101.34V68.5001H374.68V51.5001H381V36.0901H401.52V51.4801H408.67V68.4801H401.52L401.55 93.3401Z" fill="#0AB850"/>
<path d="M486.47 83.89C486.47 102.38 470.94 116.83 451.23 116.83C430.98 116.83 416.23 102.83 416.23 83.21C416.23 63.37 430.68 49.46 451.47 49.46C471.75 49.46 486.47 63.91 486.47 83.89ZM436.79 83.21C436.79 92.39 442.73 98.74 451.37 98.74C460.01 98.74 465.81 92.53 465.81 83.62C465.81 73.62 460.41 67.69 451.5 67.69C442.59 67.69 436.79 73.9 436.79 83.21Z" fill="#0AB850"/>
<path d="M479.94 28.25C474.36 37.61 466.45 44.34 458.28 47.58C457.28 38.85 459.39 28.7 464.97 19.33C470.55 9.96 478.46 3.23 486.62 0C487.67 8.72 485.52 18.88 479.94 28.25Z" fill="#FF8D24"/>
<path d="M456.41 25.8301C458.221 32.4419 457.824 39.4643 455.28 45.8301C450.022 41.4584 446.335 35.4892 444.78 28.8301C442.964 22.2188 443.361 15.1947 445.91 8.83008C451.165 13.2042 454.852 19.1724 456.41 25.8301Z" fill="#FF8D24"/>
</g>
<defs>
<clipPath id="clip0_206_2">
<rect width="486.88" height="116.83" fill="white"/>
</clipPath>
</defs>
</svg>
